<svg id="aac2c359-3344-447f-b858-24c785a9e36b" data-name="Layer 1" xmlns="http://www.w3.org/2000/svg" xmlns:xlink="http://www.w3.org/1999/xlink" viewBox="0 0 1714.07 572.18"><defs><clipPath id="e69ecb0f-5ab6-4197-a3ec-a85eae078184" transform="translate(-39.58 -17.29)"><rect x="35.39" y="12" width="1734.03" height="588" fill="none"/></clipPath><clipPath id="fb606fb4-a256-4837-9728-de519a68ac45" transform="translate(-39.58 -17.29)"><path d="M39.58,303.35c0,157.74,128.32,286.12,286.05,286.12A284,284,0,0,0,460.38,555.7a287.92,287.92,0,0,0,77.92-61.13L504.18,463.9a240.39,240.39,0,0,1-178.55,79.7c-132.45,0-240.19-107.8-240.19-240.25S193.18,63.16,325.63,63.16A238.4,238.4,0,0,1,439,91.66l21.68-40.48a284.59,284.59,0,0,0-135-33.89c-157.73,0-286,128.33-286,286.06" fill="none"/></clipPath><linearGradient id="f17de05a-81f9-4414-af42-ad1daef8c92f" y1="612" x2="1" y2="612" gradientTransform="translate(0 -304933.49) scale(498.72)" gradientUnits="userSpaceOnUse"><stop offset="0" stop-color="#00601b"/><stop offset="1" stop-color="#6c8408"/></linearGradient><clipPath id="e204a8f2-d0c5-4123-818a-9cb377fe916a" transform="translate(-39.58 -17.29)"><path d="M109.76,303.35c0,119,96.84,215.88,215.87,215.88a214,214,0,0,0,101.61-25.46,218.21,218.21,0,0,0,58.88-46.1,215.38,215.38,0,0,0,34.12-50.8L478.9,377a171.31,171.31,0,0,1-73.28,76.32,168.86,168.86,0,0,1-80,20c-93.74,0-170-76.26-170-170s76.26-170,170-170a168.57,168.57,0,0,1,80.28,20.18,170.51,170.51,0,0,1,46.21,36.35l34.18-30.62A215.3,215.3,0,0,0,325.63,87.48c-119,0-215.87,96.84-215.87,215.87" fill="none"/></clipPath><linearGradient id="bcbbca0a-6c6c-43ad-90e0-f702adbd862d" y1="612" x2="1" y2="612" gradientTransform="translate(70.18 -250929.28) scale(410.48)" gradientUnits="userSpaceOnUse"><stop offset="0" stop-color="#6faf00"/><stop offset="1" stop-color="#c8e2bc"/></linearGradient><clipPath id="f32b7fc6-4672-4c2e-b9b0-b5ab4be13a9d" transform="translate(-39.58 -17.29)"><path d="M180.8,303.35c0,79.87,65,144.84,144.83,144.84a144.31,144.31,0,0,0,68.12-17l-26.14-38.24a98.83,98.83,0,1,1,47.24-132.34l34.36-32.53a144.54,144.54,0,0,0-123.58-69.53c-79.87,0-144.83,65-144.83,144.83" fill="none"/></clipPath><linearGradient id="b2649030-6d0d-467f-93b8-10ebb59aec36" y1="612" x2="1" y2="612" gradientTransform="translate(141.22 -163982.9) scale(268.41)" gradientUnits="userSpaceOnUse"><stop offset="0" stop-color="#d9e8c1"/><stop offset="1" stop-color="#ccce7c"/></linearGradient><clipPath id="a800bd2e-6cc7-4541-a7f6-ff0ad3fda9db" transform="translate(-39.58 -17.29)"><path d="M257.44,303.38a67.75,67.75,0,1,0,67.75-67.75,67.75,67.75,0,0,0-67.75,67.75" fill="none"/></clipPath><linearGradient id="f273ea85-c61f-49b7-9762-df45c82fa142" x1="0" y1="612" x2="1" y2="612" gradientTransform="translate(217.86 -82640.13) scale(135.5)" xlink:href="#b2649030-6d0d-467f-93b8-10ebb59aec36"/></defs><title>creofin-logo-light</title><g clip-path="url(#e69ecb0f-5ab6-4197-a3ec-a85eae078184)"><path d="M663.38,404.32q-28.56,0-51.12-13.22a98.15,98.15,0,0,1-35.79-36q-13.23-22.74-13.23-51.3t13.23-51.13a97.21,97.21,0,0,1,35.79-35.62q22.56-13,51.12-13a102.63,102.63,0,0,1,38.44,7.05A88,88,0,0,1,732.14,231a80,80,0,0,1,18.69,29.8l-40.55,17.63a49.25,49.25,0,0,0-46.9-31.74,48.44,48.44,0,0,0-26.27,7.41,52.42,52.42,0,0,0-18.68,20.45q-6.88,13.05-6.88,29.62,0,16.92,6.88,30a52.35,52.35,0,0,0,18.68,20.45A48.44,48.44,0,0,0,663.38,362q16.57,0,28.92-8.64a49.31,49.31,0,0,0,18-23.45l40.55,18a75.72,75.72,0,0,1-18.33,28.92,93.85,93.85,0,0,1-30.33,20.1,99.32,99.32,0,0,1-38.79,7.4" transform="translate(-39.58 -17.29)" fill="#0c350c"/><path d="M785.38,400.09V208.27h44.08v42.66l-3.88-6.34q6.34-21.87,20.8-30.15t34.56-8.29h11.28v41.26H875.65q-19.39,0-31.56,12t-12.16,33.85V400.09Z" transform="translate(-39.58 -17.29)" fill="#0c350c"/><path d="M1008.23,404.32q-29.62,0-51.83-13.4a93.27,93.27,0,0,1-34.56-36.32q-12.35-22.91-12.34-50.77,0-28.92,12.69-51.48a94,94,0,0,1,34.38-35.44Q978.26,204,1005.06,204q22.56,0,39.84,7.4A82.61,82.61,0,0,1,1074,231.89a93.15,93.15,0,0,1,18.16,29.8,101.22,101.22,0,0,1,6.35,36.14,80,80,0,0,1-.71,10.58,70.12,70.12,0,0,1-1.76,9.17H948.29V282h121.29l-21.86,16.58q3.52-16.21-1.23-28.74a41.15,41.15,0,0,0-15.69-19.92q-10.93-7.41-25.74-7.41t-25.74,7.23q-10.94,7.23-16.75,21t-4.76,33.15q-1.41,18,4.76,31.38a47.48,47.48,0,0,0,18.33,21q12.17,7.59,28,7.58t27-6.88a50.58,50.58,0,0,0,17.46-17.8l37.37,18.33a63.07,63.07,0,0,1-17.45,24.16,88.17,88.17,0,0,1-28.74,16.75,106.24,106.24,0,0,1-36.32,6" transform="translate(-39.58 -17.29)" fill="#0c350c"/><path d="M1226.85,404.32a101.75,101.75,0,0,1-50.95-13.05,99.54,99.54,0,0,1-36.85-35.79q-13.75-22.74-13.75-51.65t13.57-51.49a97.45,97.45,0,0,1,36.67-35.43q23.1-12.87,51.31-12.87,28.56,0,51.48,12.87a97.86,97.86,0,0,1,36.5,35.43q13.56,22.57,13.57,51.49t-13.75,51.65A100,100,0,0,1,1278,391.27q-22.92,13.05-51.13,13.05m0-42.31q15.51,0,27.33-7.41A53.7,53.7,0,0,0,1273,334.15q7.05-13,7-30,0-16.57-6.87-29.44a53.77,53.77,0,0,0-18.87-20.46,53.67,53.67,0,0,0-55,0,54.05,54.05,0,0,0-18.87,20.28q-6.87,12.69-6.87,29.27,0,16.92,6.69,30.14a50,50,0,0,0,18.87,20.63,52.12,52.12,0,0,0,27.68,7.41" transform="translate(-39.58 -17.29)" fill="#0c350c"/><path d="M1385.17,400.09V249.52h-33.5V208.27h33.5v-6q0-22.22,9-37.55a59.18,59.18,0,0,1,25.39-23.45q16.4-8.1,38.61-8.11c2.82,0,6,.18,9.52.53a74.59,74.59,0,0,1,8.47,1.24v39.84a48.6,48.6,0,0,0-6.53-.88q-3-.18-5.46-.18-15.17,0-23.81,7.06t-8.64,21.5v6h83.93v41.25h-83.93V400.09Zm113.19-191.82h46.54V400.09h-46.54Z" transform="translate(-39.58 -17.29)" fill="#0c350c"/><path d="M1583,400.09V208.27h44.08v38.08l-3.53-7q6.71-17.62,21.86-26.45T1681,204q21.49,0,37.73,9.16a67.23,67.23,0,0,1,25.56,25.39q9.35,16.23,9.35,37.73V400.09H1707.1V287.61q0-12.71-4.94-21.87a34.87,34.87,0,0,0-13.57-14.1,39.45,39.45,0,0,0-19.92-4.94,41.14,41.14,0,0,0-20.45,4.94,34.3,34.3,0,0,0-13.76,14.28,45.78,45.78,0,0,0-4.93,21.69V400.09Z" transform="translate(-39.58 -17.29)" fill="#0c350c"/></g><g clip-path="url(#fb606fb4-a256-4837-9728-de519a68ac45)"><rect width="498.72" height="572.18" fill="url(#f17de05a-81f9-4414-af42-ad1daef8c92f)"/></g><g clip-path="url(#e204a8f2-d0c5-4123-818a-9cb377fe916a)"><rect x="70.18" y="70.18" width="410.48" height="431.75" fill="url(#bcbbca0a-6c6c-43ad-90e0-f702adbd862d)"/></g><g clip-path="url(#f32b7fc6-4672-4c2e-b9b0-b5ab4be13a9d)"><rect x="141.22" y="141.22" width="268.41" height="289.67" fill="url(#b2649030-6d0d-467f-93b8-10ebb59aec36)"/></g><g clip-path="url(#a800bd2e-6cc7-4541-a7f6-ff0ad3fda9db)"><rect x="217.86" y="218.34" width="135.5" height="135.5" fill="url(#f273ea85-c61f-49b7-9762-df45c82fa142)"/></g></svg>